<?xml version="1.0" encoding="UTF-8" standalone="no"?>
<!-- Generator: Adobe Illustrator 25.2.3, SVG Export Plug-In . SVG Version: 6.00 Build 0)  -->

<svg
   version="1.0"
   id="svg111794"
   x="0px"
   y="0px"
   width="35.99997px"
   height="36px"
   viewBox="0 0 35.99997 36"
   enable-background="new 0 0 35.99997 36"
   xml:space="preserve"
   sodipodi:docname="BlackKnobFG.svg"
   inkscape:version="1.3 (0e150ed6c4, 2023-07-21)"
   xmlns:inkscape="http://www.inkscape.org/namespaces/inkscape"
   xmlns:sodipodi="http://sodipodi.sourceforge.net/DTD/sodipodi-0.dtd"
   xmlns="http://www.w3.org/2000/svg"
   xmlns:svg="http://www.w3.org/2000/svg"><defs
   id="defs124" />&#10;<sodipodi:namedview
   bordercolor="#666666"
   borderopacity="1.0"
   fit-margin-bottom="0"
   fit-margin-left="0"
   fit-margin-right="0"
   fit-margin-top="0"
   id="base"
   inkscape:current-layer="g109"
   inkscape:cx="13.6875"
   inkscape:cy="-0.875"
   inkscape:document-units="mm"
   inkscape:pageopacity="0.0"
   inkscape:pageshadow="2"
   inkscape:window-height="1221"
   inkscape:window-maximized="0"
   inkscape:window-width="1465"
   inkscape:window-x="26"
   inkscape:window-y="23"
   inkscape:zoom="32"
   pagecolor="#ffffff"
   showgrid="false"
   inkscape:pagecheckerboard="0"
   inkscape:showpageshadow="2"
   inkscape:deskcolor="#d1d1d1">&#10;	</sodipodi:namedview>&#10;&#10;&#10;&#10;&#10;&#10;&#10;&#10;&#10;<g
   id="g121">&#10;	<g
   id="g109">&#10;		<path
   opacity="0.4"
   enable-background="new    "
   d="M 18.86291,0.02637 18.703421,0.01409597 C 18.415821,-6.7403174e-4 18.347635,0.00924666 18.056438,0.00319992 17.727631,-0.00362778 17.410275,0.01288387 17.13696,0.02637 7.59935,0.4801 -2e-5,8.34094 -2e-5,18 c 0,9.95068 8.05884,18.01733 18,18.01733 9.94116,0 18,-8.06665 18,-18.01733 0,-9.65906 -7.5996,-17.51978 -17.13707,-17.97363 z m -0.624287,3.2494709 c 0.29126,0 0.526811,0.042426 0.814161,0.058056 L 18.86289,3.30591 c 7.74304,0.44885 13.8888,6.8457 13.8888,14.69409 0,8.13928 -6.60461,14.73755 -14.75171,14.73755 -8.1471,0 -14.75171,-6.59827 -14.75171,-14.73755 0,-7.84839 6.14551,-14.24512 13.88867,-14.69397 1.094614,-0.05532 0.539419,-0.030189 1.101683,-0.030189 z"
   id="path105"
   style="fill:#e7e7e7;fill-opacity:1;stroke-width:1.00157;stroke-dasharray:none"
   sodipodi:nodetypes="ccscssscsccssscs" />&#10;		&#10;	<path
   sodipodi:type="star"
   style="opacity:1;fill:#ffffff;fill-opacity:1;stroke:#ffffff;stroke-width:1.00157;stroke-linecap:round;stroke-linejoin:round;stroke-opacity:1"
   id="path2"
   inkscape:flatsided="true"
   sodipodi:sides="3"
   sodipodi:cx="15.054566"
   sodipodi:cy="-3.8178711"
   sodipodi:r1="1.4252142"
   sodipodi:r2="0.71260709"
   sodipodi:arg1="1.5630021"
   sodipodi:arg2="2.6101996"
   inkscape:rounded="0"
   inkscape:randomized="0"
   d="m 15.065675,-2.3927002 -1.250897,-2.1281362 2.468468,-0.01924 z"
   inkscape:transform-center-x="-0.0022544115"
   inkscape:transform-center-y="0.50097953"
   transform="matrix(1.3035455,0.01443158,-0.01332392,1.4119127,-1.6391982,8.3381951)" /></g>&#10;	&#10;</g>&#10;</svg>
