<?xml version="1.0" encoding="UTF-8" standalone="no"?>
<!-- Generator: Adobe Illustrator 25.2.3, SVG Export Plug-In . SVG Version: 6.00 Build 0)  -->

<svg
   version="1.0"
   id="svg111794"
   x="0px"
   y="0px"
   width="35.99997px"
   height="36px"
   viewBox="0 0 35.99997 36"
   enable-background="new 0 0 35.99997 36"
   xml:space="preserve"
   sodipodi:docname="BlackKnobFG.svg"
   inkscape:version="1.3 (0e150ed6c4, 2023-07-21)"
   xmlns:inkscape="http://www.inkscape.org/namespaces/inkscape"
   xmlns:sodipodi="http://sodipodi.sourceforge.net/DTD/sodipodi-0.dtd"
   xmlns="http://www.w3.org/2000/svg"
   xmlns:svg="http://www.w3.org/2000/svg"><defs
   id="defs124" />&#10;<sodipodi:namedview
   bordercolor="#666666"
   borderopacity="1.0"
   fit-margin-bottom="0"
   fit-margin-left="0"
   fit-margin-right="0"
   fit-margin-top="0"
   id="base"
   inkscape:current-layer="g109"
   inkscape:cx="18.9375"
   inkscape:cy="9.625"
   inkscape:document-units="mm"
   inkscape:pageopacity="0.0"
   inkscape:pageshadow="2"
   inkscape:window-height="1221"
   inkscape:window-maximized="0"
   inkscape:window-width="1465"
   inkscape:window-x="26"
   inkscape:window-y="23"
   inkscape:zoom="16"
   pagecolor="#ffffff"
   showgrid="false"
   inkscape:pagecheckerboard="0"
   inkscape:showpageshadow="2"
   inkscape:deskcolor="#d1d1d1">&#10;	</sodipodi:namedview>&#10;&#10;&#10;&#10;&#10;&#10;&#10;&#10;&#10;<g
   id="g121">&#10;	<g
   id="g109">&#10;		<path
   opacity="0.4"
   enable-background="new    "
   d="m 18.856988,0.02474246 -0.159439,-0.01227 c -0.287509,-0.01476 -0.355672,-0.0049 -0.646778,-0.01089 -0.328704,-0.0068 -0.645959,0.0097 -0.919189,0.02316 C 7.5969765,0.47829446 0,8.3360795 0,17.991385 c 0,9.946813 8.0563018,18.010327 17.99433,18.010327 9.93803,0 17.994332,-8.063514 17.994332,-18.010327 0,-9.6553055 -7.597206,-17.51297054 -17.131674,-17.96664254 z M 18.232899,3.2729505 c 0.291168,0 0.526645,0.04241 0.813905,0.05803 l -0.189835,-0.02797 c 7.7406,0.448675 13.884424,6.8430365 13.884424,14.6883785 0,8.136116 -6.602528,14.731821 -14.747063,14.731821 -8.1445336,0 -14.747063,-6.595705 -14.747063,-14.731821 0,-7.845342 6.1435743,-14.2395835 13.884295,-14.6882585 1.094271,-0.0553 0.53925,-0.03018 1.101337,-0.03018 z"
   id="path105-6"
   style="opacity:1;fill:#939393;fill-opacity:1;stroke-width:1.00122;stroke-dasharray:none"
   sodipodi:nodetypes="ccscssscsccssscs" /><path
   opacity="0.4"
   enable-background="new    "
   d="m 18.817349,0.96458045 -0.151178,-0.01163 c -0.272614,-0.014 -0.337246,-0.0046 -0.61327,-0.01033 -0.311674,-0.0065 -0.612492,0.0092 -0.871566,0.02196 C 8.1407072,1.3946684 0.93732284,8.8458985 0.93732284,18.001646 c 0,9.432174 7.63891246,17.078489 17.06206216,17.078489 9.423149,0 17.062062,-7.646315 17.062062,-17.078489 0,-9.1557475 -7.203602,-16.6068646 -16.244098,-17.03706555 z M 18.225593,4.0447295 c 0.276083,0 0.49936,0.04021 0.771737,0.05503 l -0.179999,-0.02653 c 7.339568,0.425461 13.165086,6.4889855 13.165086,13.9284145 0,7.715161 -6.260458,13.96961 -13.983032,13.96961 -7.722574,0 -13.9830331,-6.254449 -13.9830331,-13.96961 0,-7.439429 5.8252817,-13.5028395 13.1649641,-13.9283005 1.037577,-0.05244 0.511311,-0.02862 1.044277,-0.02862 z"
   id="path105-3"
   style="fill:#d0cdce;fill-opacity:1;stroke-width:0.949381;stroke-dasharray:none;opacity:1"
   sodipodi:nodetypes="ccscssscsccssscs" />&#10;		&#10;	<path
   sodipodi:type="star"
   style="opacity:1;fill:#ffffff;fill-opacity:1;stroke:#ffffff;stroke-width:1.00157;stroke-linecap:round;stroke-linejoin:round;stroke-opacity:1"
   id="path2"
   inkscape:flatsided="true"
   sodipodi:sides="3"
   sodipodi:cx="15.054566"
   sodipodi:cy="-3.8178711"
   sodipodi:r1="1.4252142"
   sodipodi:r2="0.71260709"
   sodipodi:arg1="1.5630021"
   sodipodi:arg2="2.6101996"
   inkscape:rounded="0"
   inkscape:randomized="0"
   d="m 15.065675,-2.3927002 -1.250897,-2.1281362 2.468468,-0.01924 z"
   inkscape:transform-center-x="-0.0022544115"
   inkscape:transform-center-y="0.50097953"
   transform="matrix(1.3035455,0.01443158,-0.01332392,1.4119127,-1.6391982,8.3381951)" /></g>&#10;	&#10;</g>&#10;</svg>
