<?xml version="1.0" encoding="UTF-8" standalone="no"?>
<!-- Generator: Adobe Illustrator 25.2.3, SVG Export Plug-In . SVG Version: 6.00 Build 0)  -->

<svg
   version="1.0"
   id="svg111794"
   x="0px"
   y="0px"
   width="35.99997px"
   height="36px"
   viewBox="0 0 35.99997 36"
   enable-background="new 0 0 35.99997 36"
   xml:space="preserve"
   sodipodi:docname="BlackKnobFG-alt.svg"
   inkscape:version="1.3 (0e150ed6c4, 2023-07-21)"
   xmlns:inkscape="http://www.inkscape.org/namespaces/inkscape"
   xmlns:sodipodi="http://sodipodi.sourceforge.net/DTD/sodipodi-0.dtd"
   xmlns="http://www.w3.org/2000/svg"
   xmlns:svg="http://www.w3.org/2000/svg"><defs
   id="defs124" />&#10;<sodipodi:namedview
   bordercolor="#666666"
   borderopacity="1.0"
   fit-margin-bottom="0"
   fit-margin-left="0"
   fit-margin-right="0"
   fit-margin-top="0"
   id="base"
   inkscape:current-layer="g109"
   inkscape:cx="19"
   inkscape:cy="15.625"
   inkscape:document-units="mm"
   inkscape:pageopacity="0.0"
   inkscape:pageshadow="2"
   inkscape:window-height="1221"
   inkscape:window-maximized="0"
   inkscape:window-width="1465"
   inkscape:window-x="26"
   inkscape:window-y="23"
   inkscape:zoom="16"
   pagecolor="#ffffff"
   showgrid="false"
   inkscape:pagecheckerboard="0"
   inkscape:showpageshadow="2"
   inkscape:deskcolor="#d1d1d1">&#10;	</sodipodi:namedview>&#10;&#10;&#10;&#10;&#10;&#10;&#10;&#10;&#10;<g
   id="g121">&#10;	<g
   id="g109">&#10;		<path
   opacity="0.4"
   enable-background="new    "
   d="M 18.856988,0.02475181 18.697549,0.01248303 C 18.41004,-0.00228084 18.341877,0.00763204 18.050771,0.00159151 17.722067,-0.0052315 17.404812,0.01127239 17.131582,0.02475286 7.5969765,0.47830537 0,8.3360899 0,17.991396 c 0,9.946813 8.0563018,18.010327 17.99433,18.010327 9.93803,0 17.994332,-8.063514 17.994332,-18.010327 0,-9.6553061 -7.597206,-17.51297063 -17.131674,-17.96664419 z M 18.232899,3.2729595 c 0.291168,0 0.526645,0.04241 0.813905,0.058034 l -0.189835,-0.027976 c 7.7406,0.4486755 13.884424,6.8430375 13.884424,14.6883795 0,8.136116 -6.602528,14.731821 -14.747063,14.731821 -8.1445336,0 -14.747063,-6.595705 -14.747063,-14.731821 0,-7.845342 6.1435743,-14.239584 13.884295,-14.6882595 1.094271,-0.055299 0.53925,-0.030176 1.101337,-0.030178 z"
   id="path105-6"
   style="opacity:1;fill:#939393;fill-opacity:1;stroke-width:1.00122;stroke-dasharray:none"
   sodipodi:nodetypes="ccscssscsccssscs" /><path
   opacity="0.4"
   enable-background="new    "
   d="m 18.817944,0.96342746 -0.151178,-0.0116344 c -0.272614,-0.0140004 -0.337246,-0.004597 -0.61327,-0.0103283 -0.311674,-0.006472 -0.612492,0.009179 -0.871566,0.0219627 C 8.1413026,1.3935146 0.93791815,8.8447446 0.93791815,18.000493 c 0,9.432174 7.63891255,17.078489 17.06206185,17.078489 9.423149,0 17.062062,-7.646315 17.062062,-17.078489 0,-9.1557484 -7.203602,-16.6068646 -16.244098,-17.03706554 z M 18.226188,4.043576 c 0.276083,0 0.49936,0.040215 0.771737,0.055031 L 18.817926,4.072079 c 7.339568,0.4254614 13.165086,6.488986 13.165086,13.928415 0,7.715161 -6.260458,13.96961 -13.983032,13.96961 -7.722574,0 -13.9830327,-6.254449 -13.9830327,-13.96961 0,-7.439429 5.8252817,-13.5028398 13.1649637,-13.9283013 1.037577,-0.052438 0.511311,-0.028615 1.044277,-0.028617 z"
   id="path105"
   style="opacity:1;fill:#d0cdce;fill-opacity:1;stroke-width:0.949381;stroke-dasharray:none"
   sodipodi:nodetypes="ccscssscsccssscs" />&#10;		&#10;	<rect
   style="opacity:1;fill:#ffffff;fill-opacity:1;stroke:#ffffff;stroke-width:1.44542;stroke-linecap:round;stroke-linejoin:round;stroke-opacity:1"
   id="rect2"
   width="2.0820396"
   height="7.265274"
   x="16.951059"
   y="1.8868045" /></g>&#10;	&#10;</g>&#10;</svg>
