<?xml version="1.0" encoding="UTF-8" standalone="no"?>
<!-- Generator: Adobe Illustrator 25.2.3, SVG Export Plug-In . SVG Version: 6.00 Build 0)  -->

<svg
   version="1.0"
   id="svg57823"
   x="0px"
   y="0px"
   width="304px"
   height="380px"
   viewBox="0 0 304 380"
   enable-background="new 0 0 304 380"
   xml:space="preserve"
   sodipodi:docname="Dots.svg"
   inkscape:version="1.3 (0e150ed6c4, 2023-07-21)"
   xmlns:inkscape="http://www.inkscape.org/namespaces/inkscape"
   xmlns:sodipodi="http://sodipodi.sourceforge.net/DTD/sodipodi-0.dtd"
   xmlns="http://www.w3.org/2000/svg"
   xmlns:svg="http://www.w3.org/2000/svg"><defs
   id="defs95"><linearGradient
     id="SVGID_2_"
     gradientUnits="userSpaceOnUse"
     x1="657.66235"
     y1="6208.585"
     x2="668.39209"
     y2="6208.585"
     gradientTransform="matrix(0,1,1,0,-6103.5107,-507.38901)">&#10;			<stop
   offset="0.01118"
   style="stop-color:#383838"
   id="stop56" />&#10;			<stop
   offset="1"
   style="stop-color:#2B2B2B"
   id="stop57" />&#10;		</linearGradient><linearGradient
     id="SVGID_3_"
     gradientUnits="userSpaceOnUse"
     x1="726.42181"
     y1="6208.585"
     x2="737.15155"
     y2="6208.585"
     gradientTransform="matrix(0,1,1,0,-6103.5107,-507.38901)">&#10;			<stop
   offset="0.01118"
   style="stop-color:#383838"
   id="stop58" />&#10;			<stop
   offset="1"
   style="stop-color:#2B2B2B"
   id="stop59" />&#10;		</linearGradient></defs>&#10;<sodipodi:namedview
   bordercolor="#666666"
   borderopacity="1"
   gridtolerance="10"
   guidetolerance="10"
   id="namedview57825"
   inkscape:current-layer="g95"
   inkscape:cx="198"
   inkscape:cy="202.86793"
   inkscape:pageopacity="0"
   inkscape:pageshadow="2"
   inkscape:window-height="1363"
   inkscape:window-maximized="1"
   inkscape:window-width="2560"
   inkscape:window-x="0"
   inkscape:window-y="0"
   inkscape:zoom="4.4166666"
   objecttolerance="10"
   pagecolor="#ffffff"
   showgrid="false"
   inkscape:showpageshadow="2"
   inkscape:pagecheckerboard="0"
   inkscape:deskcolor="#d1d1d1">&#10;	</sodipodi:namedview>&#10;&#10;<g
   id="g54"
   style="fill:#ffffff;fill-opacity:1">&#10;	&#10;	&#10;	<circle
   fill="#303030"
   cx="7.50004"
   cy="7.70148"
   r="3.3375"
   id="circle15"
   style="fill:#ffffff;fill-opacity:1" />&#10;	<circle
   fill="#303030"
   cx="7.50004"
   cy="372.63129"
   r="3.3375"
   id="circle16"
   style="fill:#ffffff;fill-opacity:1" />&#10;	<circle
   fill="#303030"
   cx="22.50004"
   cy="7.70148"
   r="3.3375"
   id="circle17"
   style="fill:#ffffff;fill-opacity:1" />&#10;	<circle
   fill="#303030"
   cx="22.50004"
   cy="372.63129"
   r="3.3375"
   id="circle18"
   style="fill:#ffffff;fill-opacity:1" />&#10;	<circle
   fill="#303030"
   cx="37.50004"
   cy="7.70148"
   r="3.3375"
   id="circle19"
   style="fill:#ffffff;fill-opacity:1" />&#10;	<circle
   fill="#303030"
   cx="37.50004"
   cy="372.63129"
   r="3.3375"
   id="circle20"
   style="fill:#ffffff;fill-opacity:1" />&#10;	<circle
   fill="#303030"
   cx="52.50004"
   cy="7.70148"
   r="3.3375"
   id="circle21"
   style="fill:#ffffff;fill-opacity:1" />&#10;	<circle
   fill="#303030"
   cx="52.50004"
   cy="372.63129"
   r="3.3375"
   id="circle22"
   style="fill:#ffffff;fill-opacity:1" />&#10;	<circle
   fill="#303030"
   cx="67.50004"
   cy="7.70148"
   r="3.3375"
   id="circle23"
   style="fill:#ffffff;fill-opacity:1" />&#10;	<circle
   fill="#303030"
   cx="67.50004"
   cy="372.63129"
   r="3.3375"
   id="circle24"
   style="fill:#ffffff;fill-opacity:1" />&#10;	<circle
   fill="#303030"
   cx="82.50004"
   cy="7.70148"
   r="3.3375"
   id="circle25"
   style="fill:#ffffff;fill-opacity:1" />&#10;	<circle
   fill="#303030"
   cx="82.50004"
   cy="372.63129"
   r="3.3375"
   id="circle26"
   style="fill:#ffffff;fill-opacity:1" />&#10;	<circle
   fill="#303030"
   cx="97.50004"
   cy="7.70148"
   r="3.3375"
   id="circle27"
   style="fill:#ffffff;fill-opacity:1" />&#10;	<circle
   fill="#303030"
   cx="97.50004"
   cy="372.63129"
   r="3.3375"
   id="circle28"
   style="fill:#ffffff;fill-opacity:1" />&#10;	<circle
   fill="#303030"
   cx="112.50004"
   cy="7.70148"
   r="3.3375"
   id="circle29"
   style="fill:#ffffff;fill-opacity:1" />&#10;	<circle
   fill="#303030"
   cx="112.50004"
   cy="372.63129"
   r="3.3375"
   id="circle30"
   style="fill:#ffffff;fill-opacity:1" />&#10;	<circle
   fill="#303030"
   cx="127.50004"
   cy="7.70148"
   r="3.3375"
   id="circle31"
   style="fill:#ffffff;fill-opacity:1" />&#10;	<circle
   fill="#303030"
   cx="127.50004"
   cy="372.63129"
   r="3.3375"
   id="circle32"
   style="fill:#ffffff;fill-opacity:1" />&#10;	<circle
   fill="#303030"
   cx="142.50005"
   cy="7.70148"
   r="3.3375"
   id="circle33"
   style="fill:#ffffff;fill-opacity:1" />&#10;	<circle
   fill="#303030"
   cx="142.50005"
   cy="372.63129"
   r="3.3375"
   id="circle34"
   style="fill:#ffffff;fill-opacity:1" />&#10;	<circle
   fill="#303030"
   cx="157.50005"
   cy="7.70148"
   r="3.3375"
   id="circle35"
   style="fill:#ffffff;fill-opacity:1" />&#10;	<circle
   fill="#303030"
   cx="157.50005"
   cy="372.63129"
   r="3.3375"
   id="circle36"
   style="fill:#ffffff;fill-opacity:1" />&#10;	<circle
   fill="#303030"
   cx="172.50005"
   cy="7.70148"
   r="3.3375"
   id="circle37"
   style="fill:#ffffff;fill-opacity:1" />&#10;	<circle
   fill="#303030"
   cx="172.50005"
   cy="372.63129"
   r="3.3375"
   id="circle38"
   style="fill:#ffffff;fill-opacity:1" />&#10;	<circle
   fill="#303030"
   cx="187.50005"
   cy="7.70148"
   r="3.3375"
   id="circle39"
   style="fill:#ffffff;fill-opacity:1" />&#10;	<circle
   fill="#303030"
   cx="187.50005"
   cy="372.63129"
   r="3.3375"
   id="circle40"
   style="fill:#ffffff;fill-opacity:1" />&#10;	<circle
   fill="#303030"
   cx="202.50005"
   cy="7.70148"
   r="3.3375"
   id="circle41"
   style="fill:#ffffff;fill-opacity:1" />&#10;	<circle
   fill="#303030"
   cx="202.50005"
   cy="372.63129"
   r="3.3375"
   id="circle42"
   style="fill:#ffffff;fill-opacity:1" />&#10;	<circle
   fill="#303030"
   cx="217.50005"
   cy="7.70148"
   r="3.3375"
   id="circle43"
   style="fill:#ffffff;fill-opacity:1" />&#10;	<circle
   fill="#303030"
   cx="217.50005"
   cy="372.63129"
   r="3.3375"
   id="circle44"
   style="fill:#ffffff;fill-opacity:1" />&#10;	<circle
   fill="#303030"
   cx="232.50005"
   cy="7.70148"
   r="3.3375"
   id="circle45"
   style="fill:#ffffff;fill-opacity:1" />&#10;	<circle
   fill="#303030"
   cx="232.50005"
   cy="372.63129"
   r="3.3375"
   id="circle46"
   style="fill:#ffffff;fill-opacity:1" />&#10;	<circle
   fill="#303030"
   cx="247.50005"
   cy="7.70148"
   r="3.3375"
   id="circle47"
   style="fill:#ffffff;fill-opacity:1" />&#10;	<circle
   fill="#303030"
   cx="247.50005"
   cy="372.63129"
   r="3.3375"
   id="circle48"
   style="fill:#ffffff;fill-opacity:1" />&#10;	<circle
   fill="#303030"
   cx="262.50003"
   cy="7.70148"
   r="3.3375"
   id="circle49"
   style="fill:#ffffff;fill-opacity:1" />&#10;	<circle
   fill="#303030"
   cx="262.50003"
   cy="372.63129"
   r="3.3375"
   id="circle50"
   style="fill:#ffffff;fill-opacity:1" />&#10;	<circle
   fill="#303030"
   cx="277.50003"
   cy="7.70148"
   r="3.3375"
   id="circle51"
   style="fill:#ffffff;fill-opacity:1" />&#10;	<circle
   fill="#303030"
   cx="277.50003"
   cy="372.63129"
   r="3.3375"
   id="circle52"
   style="fill:#ffffff;fill-opacity:1" />&#10;	<circle
   fill="#303030"
   cx="292.50003"
   cy="7.70148"
   r="3.3375"
   id="circle53"
   style="fill:#ffffff;fill-opacity:1" />&#10;	<circle
   fill="#303030"
   cx="292.50003"
   cy="372.63129"
   r="3.3375"
   id="circle54"
   style="fill:#ffffff;fill-opacity:1" />&#10;</g>&#10;<linearGradient
   id="SVGID_1_"
   gradientUnits="userSpaceOnUse"
   x1="-1742.56592"
   y1="-7289.4585"
   x2="-1742.56592"
   y2="-7306.55859"
   gradientTransform="matrix(-1 0 0 -1 -1590.56592 -7274.52783)">&#10;	<stop
   offset="0"
   style="stop-color:#000000"
   id="stop54" />&#10;	<stop
   offset="0.96927"
   style="stop-color:#000000;stop-opacity:0"
   id="stop55" />&#10;</linearGradient>&#10;&#10;&#10;<g
   id="g95"
   transform="translate(0,3.0517578e-5)">&#10;	&#10;	<rect
   x="84.381104"
   y="164.43146"
   fill="#2e2e2e"
   width="41.454121"
   height="2.8499999"
   id="rect95"
   style="stroke-width:1.0199" /><g
   id="g55">&#10;		&#10;			<path
   id="path57598_3_"
   inkscape:connector-curvature="0"
   fill="none"
   stroke="#2e2e2e"
   stroke-width="14"
   stroke-miterlimit="10"
   d="M 0,199.15546 H 303.96542" />&#10;		&#10;			<path
   id="path57600_3_"
   inkscape:connector-curvature="0"
   fill="none"
   stroke="#2e2e2e"
   stroke-width="2.538"
   stroke-miterlimit="10"
   d="M 0,168.69452 H 303.96542" />&#10;		&#10;			<path
   id="path57602_3_"
   inkscape:connector-curvature="0"
   fill="none"
   stroke="#2e2e2e"
   stroke-width="2.538"
   stroke-miterlimit="10"
   d="M 0,174.78827 H 303.96542" />&#10;		&#10;			<path
   id="path57604_3_"
   inkscape:connector-curvature="0"
   fill="none"
   stroke="#2e2e2e"
   stroke-width="2.538"
   stroke-miterlimit="10"
   d="M 0,180.88202 H 303.96542" />&#10;		&#10;			<path
   id="path57606_3_"
   inkscape:connector-curvature="0"
   fill="none"
   stroke="#2e2e2e"
   stroke-width="2.538"
   stroke-miterlimit="10"
   d="M 0,186.97186 H 303.96542" />&#10;		&#10;			<path
   id="path57608_3_"
   inkscape:connector-curvature="0"
   fill="none"
   stroke="#2e2e2e"
   stroke-width="2.538"
   stroke-miterlimit="10"
   d="M 0,211.34296 H 303.96542" />&#10;	</g>&#10;	<g
   id="g57"
   style="display:none">&#10;		&#10;			<linearGradient
   id="linearGradient2"
   gradientUnits="userSpaceOnUse"
   x1="657.66235"
   y1="6208.585"
   x2="668.39209"
   y2="6208.585"
   gradientTransform="matrix(0,1,1,0,-6103.5107,-507.38901)">&#10;			<stop
   offset="0.01118"
   style="stop-color:#383838"
   id="stop1" />&#10;			<stop
   offset="1"
   style="stop-color:#2B2B2B"
   id="stop2" />&#10;		</linearGradient>&#10;		<circle
   fill="url(#SVGID_2_)"
   cx="105.07423"
   cy="155.63821"
   r="5.3648701"
   id="circle57"
   style="fill:url(#SVGID_2_)" />&#10;		<path
   fill="#141414"
   d="m 108.21397,155.01532 -1.77729,-0.21294 c -0.27283,-0.0327 -0.48788,-0.24782 -0.52045,-0.52066 l -0.21205,-1.77609 c -0.009,-0.0774 -0.0749,-0.13571 -0.15288,-0.13571 h -0.95412 c -0.078,0 -0.14361,0.0583 -0.15287,0.13567 l -0.21255,1.7771 c -0.0326,0.27289 -0.24779,0.48799 -0.52068,0.52057 l -1.77652,0.21211 c -0.0774,0.009 -0.13571,0.0749 -0.13571,0.15286 v 0.95418 c 0,0.078 0.0583,0.1436 0.13567,0.15286 l 1.77673,0.21252 c 0.27283,0.0326 0.48792,0.24771 0.52055,0.52055 l 0.21252,1.77667 c 0.009,0.0774 0.0749,0.13567 0.15287,0.13567 h 0.95418 c 0.0779,0 0.14359,-0.0582 0.15286,-0.13564 l 0.21289,-1.77692 c 0.0327,-0.27278 0.24776,-0.48781 0.52055,-0.52043 l 1.77628,-0.21243 c 0.0774,-0.009 0.13567,-0.0749 0.13567,-0.15286 v -0.95424 c 0,-0.0779 -0.0583,-0.14356 -0.13565,-0.15284 z"
   id="path57" />&#10;	</g>&#10;	<g
   id="g59"
   style="display:none">&#10;		&#10;			<linearGradient
   id="linearGradient4"
   gradientUnits="userSpaceOnUse"
   x1="726.42181"
   y1="6208.585"
   x2="737.15155"
   y2="6208.585"
   gradientTransform="matrix(0,1,1,0,-6103.5107,-507.38901)">&#10;			<stop
   offset="0.01118"
   style="stop-color:#383838"
   id="stop3" />&#10;			<stop
   offset="1"
   style="stop-color:#2B2B2B"
   id="stop4" />&#10;		</linearGradient>&#10;		<circle
   fill="url(#SVGID_3_)"
   cx="105.07426"
   cy="224.39766"
   r="5.3648701"
   id="circle59"
   style="fill:url(#SVGID_3_)" />&#10;		<path
   fill="#141414"
   d="m 108.214,223.77475 -1.77729,-0.21294 c -0.27283,-0.0327 -0.48788,-0.24782 -0.52045,-0.52066 l -0.21205,-1.77609 c -0.009,-0.0774 -0.0749,-0.1357 -0.15288,-0.1357 h -0.95412 c -0.078,0 -0.14361,0.0583 -0.15287,0.13568 l -0.21255,1.7771 c -0.0326,0.27289 -0.24779,0.48799 -0.52068,0.52057 l -1.77652,0.2121 c -0.0774,0.009 -0.13571,0.0749 -0.13571,0.15286 v 0.95418 c 0,0.078 0.0583,0.1436 0.13567,0.15286 l 1.77673,0.21252 c 0.27283,0.0326 0.48792,0.24771 0.52055,0.52055 l 0.21252,1.77667 c 0.009,0.0774 0.0749,0.13568 0.15287,0.13568 h 0.95418 c 0.0779,0 0.14359,-0.0583 0.15286,-0.13565 l 0.21289,-1.7769 c 0.0327,-0.2728 0.24776,-0.48781 0.52055,-0.52045 l 1.77628,-0.21243 c 0.0774,-0.009 0.13567,-0.0749 0.13567,-0.15286 v -0.95424 c 1e-5,-0.0779 -0.0583,-0.14357 -0.13565,-0.15285 z"
   id="path59" />&#10;	</g>&#10;	<g
   id="g66">&#10;		<g
   id="g65">&#10;			<path
   id="path57670_17_"
   inkscape:connector-curvature="0"
   fill="#0f0f0f"
   d="M 85.14845,223.47577 H 65.00001 v -66.91406 h 20.14844 z" />&#10;			<path
   id="path57672_33_"
   inkscape:connector-curvature="0"
   fill="#212121"
   d="M 82.8711,220.71796 H 67.27345 v -61.40233 h 15.59766 c 0,0 0,61.40233 -1e-5,61.40233 z" />&#10;			<path
   id="path57672_32_"
   inkscape:connector-curvature="0"
   fill="#212121"
   d="m 85.14845,196.24413 h -2.27734 v -12.45468 h 2.27734 c 0,-10e-6 0,12.45468 0,12.45468 z" />&#10;			<g
   id="g60">&#10;				<path
   id="path57674_33_"
   inkscape:connector-curvature="0"
   fill="#707070"
   d="m 72.78907,169.45624 h -1.52345 v -1.52344 h 1.52344 c 0,0 0,1.52344 10e-6,1.52344 z" />&#10;				<path
   id="path57676_33_"
   inkscape:connector-curvature="0"
   fill="#707070"
   d="m 78.87892,169.45624 h -1.52344 v -1.52344 h 1.52344 z" />&#10;				<path
   id="path57678_33_"
   inkscape:connector-curvature="0"
   fill="#707070"
   d="m 72.78907,175.54999 h -1.52345 v -1.52344 h 1.52344 c 0,0 0,1.52344 10e-6,1.52344 z" />&#10;				<path
   id="path57680_33_"
   inkscape:connector-curvature="0"
   fill="#707070"
   d="m 78.87892,175.54999 h -1.52344 v -1.52344 h 1.52344 z" />&#10;				<path
   id="path57682_33_"
   inkscape:connector-curvature="0"
   fill="#707070"
   d="m 72.78907,181.63983 h -1.52345 v -1.51953 h 1.52344 c 0,0 0,1.51953 10e-6,1.51953 z" />&#10;				<path
   id="path57684_33_"
   inkscape:connector-curvature="0"
   fill="#707070"
   d="m 78.87892,181.63983 h -1.52344 v -1.51953 h 1.52344 z" />&#10;				<path
   id="path57686_33_"
   inkscape:connector-curvature="0"
   fill="#707070"
   d="m 72.78907,187.73358 h -1.52345 v -1.52344 h 1.52344 c 0,0 0,1.52344 10e-6,1.52344 z" />&#10;				<path
   id="path57688_33_"
   inkscape:connector-curvature="0"
   fill="#707070"
   d="m 78.87892,187.73358 h -1.52344 v -1.52344 h 1.52344 z" />&#10;				<path
   id="path57690_33_"
   inkscape:connector-curvature="0"
   fill="#707070"
   d="m 72.78907,193.82733 h -1.52345 v -1.52344 h 1.52344 c 0,0 0,1.52344 10e-6,1.52344 z" />&#10;				<path
   id="path57692_33_"
   inkscape:connector-curvature="0"
   fill="#707070"
   d="m 78.87892,193.82733 h -1.52344 v -1.52344 h 1.52344 z" />&#10;				<path
   id="path57694_33_"
   inkscape:connector-curvature="0"
   fill="#707070"
   d="m 72.78907,199.91718 h -1.52345 v -1.52344 h 1.52344 c 0,0 0,1.52344 10e-6,1.52344 z" />&#10;				<path
   id="path57696_33_"
   inkscape:connector-curvature="0"
   fill="#707070"
   d="m 78.87892,199.91718 h -1.52344 v -1.52344 h 1.52344 z" />&#10;				<path
   id="path57698_33_"
   inkscape:connector-curvature="0"
   fill="#707070"
   d="m 72.78907,206.01093 h -1.52345 v -1.52344 h 1.52344 c 0,0 0,1.52344 10e-6,1.52344 z" />&#10;				<path
   id="path57700_33_"
   inkscape:connector-curvature="0"
   fill="#707070"
   d="m 78.87892,206.01093 h -1.52344 v -1.52344 h 1.52344 z" />&#10;				<path
   id="path57702_33_"
   inkscape:connector-curvature="0"
   fill="#707070"
   d="m 72.78907,212.10077 h -1.52345 v -1.52344 h 1.52344 c 0,0 0,1.52344 10e-6,1.52344 z" />&#10;				<path
   id="path57704_33_"
   inkscape:connector-curvature="0"
   fill="#707070"
   d="m 78.87892,212.10077 h -1.52344 v -1.52344 h 1.52344 z" />&#10;			</g>&#10;			<g
   id="g61">&#10;				<path
   id="path57674_32_"
   inkscape:connector-curvature="0"
   fill="#1a1a1a"
   d="m 72.78907,170.97968 h -1.52345 v -1.52344 h 1.52344 c 0,0 0,1.52344 10e-6,1.52344 z" />&#10;				<path
   id="path57676_32_"
   inkscape:connector-curvature="0"
   fill="#1a1a1a"
   d="m 78.87892,170.97968 h -1.52344 v -1.52344 h 1.52344 z" />&#10;				<path
   id="path57678_32_"
   inkscape:connector-curvature="0"
   fill="#1a1a1a"
   d="m 72.78907,177.07343 h -1.52345 v -1.52344 h 1.52344 c 0,0 0,1.52344 10e-6,1.52344 z" />&#10;				<path
   id="path57680_32_"
   inkscape:connector-curvature="0"
   fill="#1a1a1a"
   d="m 78.87892,177.07343 h -1.52344 v -1.52344 h 1.52344 z" />&#10;				<path
   id="path57682_32_"
   inkscape:connector-curvature="0"
   fill="#1a1a1a"
   d="m 72.78907,183.16327 h -1.52345 v -1.51953 h 1.52344 c 0,0 0,1.51953 10e-6,1.51953 z" />&#10;				<path
   id="path57684_32_"
   inkscape:connector-curvature="0"
   fill="#1a1a1a"
   d="m 78.87892,183.16327 h -1.52344 v -1.51953 h 1.52344 z" />&#10;				<path
   id="path57686_32_"
   inkscape:connector-curvature="0"
   fill="#1a1a1a"
   d="m 72.78907,189.25702 h -1.52345 v -1.52344 h 1.52344 c 0,0 0,1.52344 10e-6,1.52344 z" />&#10;				<path
   id="path57688_32_"
   inkscape:connector-curvature="0"
   fill="#1a1a1a"
   d="m 78.87892,189.25702 h -1.52344 v -1.52344 h 1.52344 z" />&#10;				<path
   id="path57690_32_"
   inkscape:connector-curvature="0"
   fill="#1a1a1a"
   d="m 72.78907,195.35077 h -1.52345 v -1.52344 h 1.52344 c 0,0 0,1.52344 10e-6,1.52344 z" />&#10;				<path
   id="path57692_32_"
   inkscape:connector-curvature="0"
   fill="#1a1a1a"
   d="m 78.87892,195.35077 h -1.52344 v -1.52344 h 1.52344 z" />&#10;				<path
   id="path57694_32_"
   inkscape:connector-curvature="0"
   fill="#1a1a1a"
   d="m 72.78907,201.44061 h -1.52345 v -1.52344 h 1.52344 c 0,1e-5 0,1.52344 10e-6,1.52344 z" />&#10;				<path
   id="path57696_32_"
   inkscape:connector-curvature="0"
   fill="#1a1a1a"
   d="m 78.87892,201.44061 h -1.52344 v -1.52344 h 1.52344 z" />&#10;				<path
   id="path57698_32_"
   inkscape:connector-curvature="0"
   fill="#1a1a1a"
   d="m 72.78907,207.53436 h -1.52345 v -1.52344 h 1.52344 c 0,1e-5 0,1.52344 10e-6,1.52344 z" />&#10;				<path
   id="path57700_32_"
   inkscape:connector-curvature="0"
   fill="#1a1a1a"
   d="m 78.87892,207.53436 h -1.52344 v -1.52344 h 1.52344 z" />&#10;				<path
   id="path57702_32_"
   inkscape:connector-curvature="0"
   fill="#1a1a1a"
   d="m 72.78907,213.62421 h -1.52345 v -1.52344 h 1.52344 c 0,0 0,1.52344 10e-6,1.52344 z" />&#10;				<path
   id="path57704_32_"
   inkscape:connector-curvature="0"
   fill="#1a1a1a"
   d="m 78.87892,213.62421 h -1.52344 v -1.52344 h 1.52344 z" />&#10;			</g>&#10;			&#10;				<path
   id="path57706_17_"
   inkscape:connector-curvature="0"
   fill="none"
   stroke="#303030"
   stroke-width="2"
   stroke-linecap="round"
   stroke-linejoin="round"
   stroke-miterlimit="10"
   d="M 65.48048,229.23358 H 84.66407" />&#10;			<polygon
   fill="#1a1a1a"
   points="84.04726,222.0582 66.09728,222.0582 67.27345,220.71796 82.8711,220.71796 "
   id="polygon61" />&#10;			<polygon
   fill="#0a0a0a"
   points="84.04726,157.97539 66.09728,157.97539 67.27345,159.31563 82.8711,159.31563 "
   id="polygon62" />&#10;			<rect
   x="65.000008"
   y="223.47577"
   fill="#0a0a0a"
   width="20.148439"
   height="0.37773001"
   id="rect62" />&#10;			<rect
   x="65.000008"
   y="223.85352"
   fill="#1a1a1a"
   width="20.148439"
   height="3.0046899"
   id="rect63" />&#10;			<rect
   x="67.273453"
   y="159.31563"
   fill="#1a1a1a"
   width="15.59766"
   height="2.14258"
   id="rect64" />&#10;			<rect
   x="82.871101"
   y="183.78944"
   fill="#1a1a1a"
   width="2.2695301"
   height="1.81875"
   id="rect65" />&#10;		</g>&#10;	</g>&#10;	<g
   id="g73">&#10;		<g
   id="g72">&#10;			<path
   id="path57670_16_"
   inkscape:connector-curvature="0"
   fill="#0f0f0f"
   d="M 25.14848,223.47577 H 5.00004 v -66.91406 h 20.14844 z" />&#10;			<path
   id="path57672_31_"
   inkscape:connector-curvature="0"
   fill="#212121"
   d="M 22.87114,220.71796 H 7.27348 v -61.40233 h 15.59766 z" />&#10;			<path
   id="path57672_30_"
   inkscape:connector-curvature="0"
   fill="#212121"
   d="m 25.14848,196.24413 h -2.27734 v -12.45468 h 2.27734 z" />&#10;			<g
   id="g67">&#10;				<path
   id="path57674_31_"
   inkscape:connector-curvature="0"
   fill="#707070"
   d="m 12.7891,169.45624 h -1.52343 v -1.52344 h 1.52344 v 1.52344 z" />&#10;				<path
   id="path57676_31_"
   inkscape:connector-curvature="0"
   fill="#707070"
   d="m 18.87895,169.45624 h -1.52344 v -1.52344 h 1.52344 z" />&#10;				<path
   id="path57678_31_"
   inkscape:connector-curvature="0"
   fill="#707070"
   d="m 12.7891,175.54999 h -1.52343 v -1.52344 h 1.52344 v 1.52344 z" />&#10;				<path
   id="path57680_31_"
   inkscape:connector-curvature="0"
   fill="#707070"
   d="m 18.87895,175.54999 h -1.52344 v -1.52344 h 1.52344 z" />&#10;				<path
   id="path57682_31_"
   inkscape:connector-curvature="0"
   fill="#707070"
   d="m 12.7891,181.63983 h -1.52343 v -1.51953 h 1.52344 v 1.51953 z" />&#10;				<path
   id="path57684_31_"
   inkscape:connector-curvature="0"
   fill="#707070"
   d="m 18.87895,181.63983 h -1.52344 v -1.51953 h 1.52344 z" />&#10;				<path
   id="path57686_31_"
   inkscape:connector-curvature="0"
   fill="#707070"
   d="m 12.7891,187.73358 h -1.52343 v -1.52344 h 1.52344 v 1.52344 z" />&#10;				<path
   id="path57688_31_"
   inkscape:connector-curvature="0"
   fill="#707070"
   d="m 18.87895,187.73358 h -1.52344 v -1.52344 h 1.52344 z" />&#10;				<path
   id="path57690_31_"
   inkscape:connector-curvature="0"
   fill="#707070"
   d="m 12.7891,193.82733 h -1.52343 v -1.52344 h 1.52344 v 1.52344 z" />&#10;				<path
   id="path57692_31_"
   inkscape:connector-curvature="0"
   fill="#707070"
   d="m 18.87895,193.82733 h -1.52344 v -1.52344 h 1.52344 z" />&#10;				<path
   id="path57694_31_"
   inkscape:connector-curvature="0"
   fill="#707070"
   d="m 12.7891,199.91718 h -1.52343 v -1.52344 h 1.52344 v 1.52344 z" />&#10;				<path
   id="path57696_31_"
   inkscape:connector-curvature="0"
   fill="#707070"
   d="m 18.87895,199.91718 h -1.52344 v -1.52344 h 1.52344 z" />&#10;				<path
   id="path57698_31_"
   inkscape:connector-curvature="0"
   fill="#707070"
   d="m 12.7891,206.01093 h -1.52343 v -1.52344 h 1.52344 v 1.52344 z" />&#10;				<path
   id="path57700_31_"
   inkscape:connector-curvature="0"
   fill="#707070"
   d="m 18.87895,206.01093 h -1.52344 v -1.52344 h 1.52344 z" />&#10;				<path
   id="path57702_31_"
   inkscape:connector-curvature="0"
   fill="#707070"
   d="m 12.7891,212.10077 h -1.52343 v -1.52344 h 1.52344 v 1.52344 z" />&#10;				<path
   id="path57704_31_"
   inkscape:connector-curvature="0"
   fill="#707070"
   d="m 18.87895,212.10077 h -1.52344 v -1.52344 h 1.52344 z" />&#10;			</g>&#10;			<g
   id="g68">&#10;				<path
   id="path57674_30_"
   inkscape:connector-curvature="0"
   fill="#1a1a1a"
   d="m 12.7891,170.97968 h -1.52343 v -1.52344 h 1.52344 v 1.52344 z" />&#10;				<path
   id="path57676_30_"
   inkscape:connector-curvature="0"
   fill="#1a1a1a"
   d="m 18.87895,170.97968 h -1.52344 v -1.52344 h 1.52344 z" />&#10;				<path
   id="path57678_30_"
   inkscape:connector-curvature="0"
   fill="#1a1a1a"
   d="m 12.7891,177.07343 h -1.52343 v -1.52344 h 1.52344 v 1.52344 z" />&#10;				<path
   id="path57680_30_"
   inkscape:connector-curvature="0"
   fill="#1a1a1a"
   d="m 18.87895,177.07343 h -1.52344 v -1.52344 h 1.52344 z" />&#10;				<path
   id="path57682_30_"
   inkscape:connector-curvature="0"
   fill="#1a1a1a"
   d="m 12.7891,183.16327 h -1.52343 v -1.51953 h 1.52344 v 1.51953 z" />&#10;				<path
   id="path57684_30_"
   inkscape:connector-curvature="0"
   fill="#1a1a1a"
   d="m 18.87895,183.16327 h -1.52344 v -1.51953 h 1.52344 z" />&#10;				<path
   id="path57686_30_"
   inkscape:connector-curvature="0"
   fill="#1a1a1a"
   d="m 12.7891,189.25702 h -1.52343 v -1.52344 h 1.52344 v 1.52344 z" />&#10;				<path
   id="path57688_30_"
   inkscape:connector-curvature="0"
   fill="#1a1a1a"
   d="m 18.87895,189.25702 h -1.52344 v -1.52344 h 1.52344 z" />&#10;				<path
   id="path57690_30_"
   inkscape:connector-curvature="0"
   fill="#1a1a1a"
   d="m 12.7891,195.35077 h -1.52343 v -1.52344 h 1.52344 v 1.52344 z" />&#10;				<path
   id="path57692_30_"
   inkscape:connector-curvature="0"
   fill="#1a1a1a"
   d="m 18.87895,195.35077 h -1.52344 v -1.52344 h 1.52344 z" />&#10;				<path
   id="path57694_30_"
   inkscape:connector-curvature="0"
   fill="#1a1a1a"
   d="m 12.7891,201.44061 h -1.52343 v -1.52344 h 1.52344 v 1.52344 z" />&#10;				<path
   id="path57696_30_"
   inkscape:connector-curvature="0"
   fill="#1a1a1a"
   d="m 18.87895,201.44061 h -1.52344 v -1.52344 h 1.52344 z" />&#10;				<path
   id="path57698_30_"
   inkscape:connector-curvature="0"
   fill="#1a1a1a"
   d="m 12.7891,207.53436 h -1.52343 v -1.52344 h 1.52344 v 1.52344 z" />&#10;				<path
   id="path57700_30_"
   inkscape:connector-curvature="0"
   fill="#1a1a1a"
   d="m 18.87895,207.53436 h -1.52344 v -1.52344 h 1.52344 z" />&#10;				<path
   id="path57702_30_"
   inkscape:connector-curvature="0"
   fill="#1a1a1a"
   d="m 12.7891,213.62421 h -1.52343 v -1.52344 h 1.52344 v 1.52344 z" />&#10;				<path
   id="path57704_30_"
   inkscape:connector-curvature="0"
   fill="#1a1a1a"
   d="m 18.87895,213.62421 h -1.52344 v -1.52344 h 1.52344 z" />&#10;			</g>&#10;			&#10;				<path
   id="path57706_16_"
   inkscape:connector-curvature="0"
   fill="none"
   stroke="#303030"
   stroke-width="2"
   stroke-linecap="round"
   stroke-linejoin="round"
   stroke-miterlimit="10"
   d="M 5.48051,229.23358 H 24.6641" />&#10;			<polygon
   fill="#1a1a1a"
   points="24.04731,222.0582 6.09731,222.0582 7.27348,220.71796 22.87114,220.71796 "
   id="polygon68" />&#10;			<polygon
   fill="#0a0a0a"
   points="24.04731,157.97539 6.09731,157.97539 7.27348,159.31563 22.87114,159.31563 "
   id="polygon69" />&#10;			<rect
   x="5.0000401"
   y="223.47577"
   fill="#0a0a0a"
   width="20.148439"
   height="0.37773001"
   id="rect69" />&#10;			<rect
   x="5.0000401"
   y="223.85352"
   fill="#1a1a1a"
   width="20.148439"
   height="3.0046899"
   id="rect70" />&#10;			<rect
   x="7.2734799"
   y="159.31563"
   fill="#1a1a1a"
   width="15.59766"
   height="2.14258"
   id="rect71" />&#10;			<rect
   x="22.87114"
   y="183.78944"
   fill="#1a1a1a"
   width="2.2695301"
   height="1.81875"
   id="rect72" />&#10;		</g>&#10;	</g>&#10;	<g
   id="g80">&#10;		<g
   id="g79">&#10;			<path
   id="path57670_15_"
   inkscape:connector-curvature="0"
   fill="#0f0f0f"
   d="m 145.14847,223.47577 h -20.14845 v -66.91406 h 20.14845 z" />&#10;			<path
   id="path57672_29_"
   inkscape:connector-curvature="0"
   fill="#212121"
   d="m 142.87112,220.71796 h -15.59766 v -61.40233 h 15.59766 z" />&#10;			<path
   id="path57672_28_"
   inkscape:connector-curvature="0"
   fill="#212121"
   d="m 145.14847,196.24413 h -2.27734 v -12.45468 h 2.27734 z" />&#10;			<g
   id="g74">&#10;				<path
   id="path57674_29_"
   inkscape:connector-curvature="0"
   fill="#707070"
   d="m 132.78909,169.45624 h -1.52344 v -1.52344 h 1.52344 z" />&#10;				<path
   id="path57676_29_"
   inkscape:connector-curvature="0"
   fill="#707070"
   d="m 138.87894,169.45624 h -1.52344 v -1.52344 h 1.52344 z" />&#10;				<path
   id="path57678_29_"
   inkscape:connector-curvature="0"
   fill="#707070"
   d="m 132.78909,175.54999 h -1.52344 v -1.52344 h 1.52344 z" />&#10;				<path
   id="path57680_29_"
   inkscape:connector-curvature="0"
   fill="#707070"
   d="m 138.87894,175.54999 h -1.52344 v -1.52344 h 1.52344 z" />&#10;				<path
   id="path57682_29_"
   inkscape:connector-curvature="0"
   fill="#707070"
   d="m 132.78909,181.63983 h -1.52344 v -1.51953 h 1.52344 z" />&#10;				<path
   id="path57684_29_"
   inkscape:connector-curvature="0"
   fill="#707070"
   d="m 138.87894,181.63983 h -1.52344 v -1.51953 h 1.52344 z" />&#10;				<path
   id="path57686_29_"
   inkscape:connector-curvature="0"
   fill="#707070"
   d="m 132.78909,187.73358 h -1.52344 v -1.52344 h 1.52344 z" />&#10;				<path
   id="path57688_29_"
   inkscape:connector-curvature="0"
   fill="#707070"
   d="m 138.87894,187.73358 h -1.52344 v -1.52344 h 1.52344 z" />&#10;				<path
   id="path57690_29_"
   inkscape:connector-curvature="0"
   fill="#707070"
   d="m 132.78909,193.82733 h -1.52344 v -1.52344 h 1.52344 z" />&#10;				<path
   id="path57692_29_"
   inkscape:connector-curvature="0"
   fill="#707070"
   d="m 138.87894,193.82733 h -1.52344 v -1.52344 h 1.52344 z" />&#10;				<path
   id="path57694_29_"
   inkscape:connector-curvature="0"
   fill="#707070"
   d="m 132.78909,199.91718 h -1.52344 v -1.52344 h 1.52344 z" />&#10;				<path
   id="path57696_29_"
   inkscape:connector-curvature="0"
   fill="#707070"
   d="m 138.87894,199.91718 h -1.52344 v -1.52344 h 1.52344 z" />&#10;				<path
   id="path57698_29_"
   inkscape:connector-curvature="0"
   fill="#707070"
   d="m 132.78909,206.01093 h -1.52344 v -1.52344 h 1.52344 z" />&#10;				<path
   id="path57700_29_"
   inkscape:connector-curvature="0"
   fill="#707070"
   d="m 138.87894,206.01093 h -1.52344 v -1.52344 h 1.52344 z" />&#10;				<path
   id="path57702_29_"
   inkscape:connector-curvature="0"
   fill="#707070"
   d="m 132.78909,212.10077 h -1.52344 v -1.52344 h 1.52344 z" />&#10;				<path
   id="path57704_29_"
   inkscape:connector-curvature="0"
   fill="#707070"
   d="m 138.87894,212.10077 h -1.52344 v -1.52344 h 1.52344 z" />&#10;			</g>&#10;			<g
   id="g75">&#10;				<path
   id="path57674_28_"
   inkscape:connector-curvature="0"
   fill="#1a1a1a"
   d="m 132.78909,170.97968 h -1.52344 v -1.52344 h 1.52344 z" />&#10;				<path
   id="path57676_28_"
   inkscape:connector-curvature="0"
   fill="#1a1a1a"
   d="m 138.87894,170.97968 h -1.52344 v -1.52344 h 1.52344 z" />&#10;				<path
   id="path57678_28_"
   inkscape:connector-curvature="0"
   fill="#1a1a1a"
   d="m 132.78909,177.07343 h -1.52344 v -1.52344 h 1.52344 z" />&#10;				<path
   id="path57680_28_"
   inkscape:connector-curvature="0"
   fill="#1a1a1a"
   d="m 138.87894,177.07343 h -1.52344 v -1.52344 h 1.52344 z" />&#10;				<path
   id="path57682_28_"
   inkscape:connector-curvature="0"
   fill="#1a1a1a"
   d="m 132.78909,183.16327 h -1.52344 v -1.51953 h 1.52344 z" />&#10;				<path
   id="path57684_28_"
   inkscape:connector-curvature="0"
   fill="#1a1a1a"
   d="m 138.87894,183.16327 h -1.52344 v -1.51953 h 1.52344 z" />&#10;				<path
   id="path57686_28_"
   inkscape:connector-curvature="0"
   fill="#1a1a1a"
   d="m 132.78909,189.25702 h -1.52344 v -1.52344 h 1.52344 z" />&#10;				<path
   id="path57688_28_"
   inkscape:connector-curvature="0"
   fill="#1a1a1a"
   d="m 138.87894,189.25702 h -1.52344 v -1.52344 h 1.52344 z" />&#10;				<path
   id="path57690_28_"
   inkscape:connector-curvature="0"
   fill="#1a1a1a"
   d="m 132.78909,195.35077 h -1.52344 v -1.52344 h 1.52344 z" />&#10;				<path
   id="path57692_28_"
   inkscape:connector-curvature="0"
   fill="#1a1a1a"
   d="m 138.87894,195.35077 h -1.52344 v -1.52344 h 1.52344 z" />&#10;				<path
   id="path57694_28_"
   inkscape:connector-curvature="0"
   fill="#1a1a1a"
   d="m 132.78909,201.44061 h -1.52344 v -1.52344 h 1.52344 z" />&#10;				<path
   id="path57696_28_"
   inkscape:connector-curvature="0"
   fill="#1a1a1a"
   d="m 138.87894,201.44061 h -1.52344 v -1.52344 h 1.52344 z" />&#10;				<path
   id="path57698_28_"
   inkscape:connector-curvature="0"
   fill="#1a1a1a"
   d="m 132.78909,207.53436 h -1.52344 v -1.52344 h 1.52344 z" />&#10;				<path
   id="path57700_28_"
   inkscape:connector-curvature="0"
   fill="#1a1a1a"
   d="m 138.87894,207.53436 h -1.52344 v -1.52344 h 1.52344 z" />&#10;				<path
   id="path57702_28_"
   inkscape:connector-curvature="0"
   fill="#1a1a1a"
   d="m 132.78909,213.62421 h -1.52344 v -1.52344 h 1.52344 z" />&#10;				<path
   id="path57704_28_"
   inkscape:connector-curvature="0"
   fill="#1a1a1a"
   d="m 138.87894,213.62421 h -1.52344 v -1.52344 h 1.52344 z" />&#10;			</g>&#10;			&#10;				<path
   id="path57706_15_"
   inkscape:connector-curvature="0"
   fill="none"
   stroke="#303030"
   stroke-width="2"
   stroke-linecap="round"
   stroke-linejoin="round"
   stroke-miterlimit="10"
   d="m 125.48048,229.23358 h 19.18359" />&#10;			<polygon
   fill="#1a1a1a"
   points="144.04729,222.0582 126.09729,222.0582 127.27346,220.71796 142.87112,220.71796 "
   id="polygon75" />&#10;			<polygon
   fill="#0a0a0a"
   points="144.04729,157.97539 126.09729,157.97539 127.27346,159.31563 142.87112,159.31563 "
   id="polygon76" />&#10;			<rect
   x="125.00003"
   y="223.47577"
   fill="#0a0a0a"
   width="20.148439"
   height="0.37773001"
   id="rect76" />&#10;			<rect
   x="125.00003"
   y="223.85352"
   fill="#1a1a1a"
   width="20.148439"
   height="3.0046899"
   id="rect77" />&#10;			<rect
   x="127.27346"
   y="159.31563"
   fill="#1a1a1a"
   width="15.59766"
   height="2.14258"
   id="rect78" />&#10;			<rect
   x="142.87112"
   y="183.78944"
   fill="#1a1a1a"
   width="2.2695301"
   height="1.81875"
   id="rect79" />&#10;		</g>&#10;	</g>&#10;	<g
   id="XMLID_11_">&#10;		<g
   id="g86">&#10;			<path
   id="path57670_14_"
   inkscape:connector-curvature="0"
   fill="#0f0f0f"
   d="m 205.14847,223.47577 h -20.14844 v -66.91406 h 20.14844 z" />&#10;			<path
   id="path57672_27_"
   inkscape:connector-curvature="0"
   fill="#212121"
   d="m 202.87112,220.71796 h -15.59766 v -61.40233 h 15.59766 z" />&#10;			<path
   id="path57672_26_"
   inkscape:connector-curvature="0"
   fill="#212121"
   d="m 205.14847,196.24413 h -2.27734 v -12.45468 h 2.27734 z" />&#10;			<g
   id="g81">&#10;				<path
   id="path57674_27_"
   inkscape:connector-curvature="0"
   fill="#707070"
   d="m 192.78909,169.45624 h -1.52344 v -1.52344 h 1.52344 z" />&#10;				<path
   id="path57676_27_"
   inkscape:connector-curvature="0"
   fill="#707070"
   d="m 198.87894,169.45624 h -1.52344 v -1.52344 h 1.52344 z" />&#10;				<path
   id="path57678_27_"
   inkscape:connector-curvature="0"
   fill="#707070"
   d="m 192.78909,175.54999 h -1.52344 v -1.52344 h 1.52344 z" />&#10;				<path
   id="path57680_27_"
   inkscape:connector-curvature="0"
   fill="#707070"
   d="m 198.87894,175.54999 h -1.52344 v -1.52344 h 1.52344 z" />&#10;				<path
   id="path57682_27_"
   inkscape:connector-curvature="0"
   fill="#707070"
   d="m 192.78909,181.63983 h -1.52344 v -1.51953 h 1.52344 z" />&#10;				<path
   id="path57684_27_"
   inkscape:connector-curvature="0"
   fill="#707070"
   d="m 198.87894,181.63983 h -1.52344 v -1.51953 h 1.52344 z" />&#10;				<path
   id="path57686_27_"
   inkscape:connector-curvature="0"
   fill="#707070"
   d="m 192.78909,187.73358 h -1.52344 v -1.52344 h 1.52344 z" />&#10;				<path
   id="path57688_27_"
   inkscape:connector-curvature="0"
   fill="#707070"
   d="m 198.87894,187.73358 h -1.52344 v -1.52344 h 1.52344 z" />&#10;				<path
   id="path57690_27_"
   inkscape:connector-curvature="0"
   fill="#707070"
   d="m 192.78909,193.82733 h -1.52344 v -1.52344 h 1.52344 z" />&#10;				<path
   id="path57692_27_"
   inkscape:connector-curvature="0"
   fill="#707070"
   d="m 198.87894,193.82733 h -1.52344 v -1.52344 h 1.52344 z" />&#10;				<path
   id="path57694_27_"
   inkscape:connector-curvature="0"
   fill="#707070"
   d="m 192.78909,199.91718 h -1.52344 v -1.52344 h 1.52344 z" />&#10;				<path
   id="path57696_27_"
   inkscape:connector-curvature="0"
   fill="#707070"
   d="m 198.87894,199.91718 h -1.52344 v -1.52344 h 1.52344 z" />&#10;				<path
   id="path57698_27_"
   inkscape:connector-curvature="0"
   fill="#707070"
   d="m 192.78909,206.01093 h -1.52344 v -1.52344 h 1.52344 z" />&#10;				<path
   id="path57700_27_"
   inkscape:connector-curvature="0"
   fill="#707070"
   d="m 198.87894,206.01093 h -1.52344 v -1.52344 h 1.52344 z" />&#10;				<path
   id="path57702_27_"
   inkscape:connector-curvature="0"
   fill="#707070"
   d="m 192.78909,212.10077 h -1.52344 v -1.52344 h 1.52344 z" />&#10;				<path
   id="path57704_27_"
   inkscape:connector-curvature="0"
   fill="#707070"
   d="m 198.87894,212.10077 h -1.52344 v -1.52344 h 1.52344 z" />&#10;			</g>&#10;			<g
   id="g82">&#10;				<path
   id="path57674_26_"
   inkscape:connector-curvature="0"
   fill="#1a1a1a"
   d="m 192.78909,170.97968 h -1.52344 v -1.52344 h 1.52344 z" />&#10;				<path
   id="path57676_26_"
   inkscape:connector-curvature="0"
   fill="#1a1a1a"
   d="m 198.87894,170.97968 h -1.52344 v -1.52344 h 1.52344 z" />&#10;				<path
   id="path57678_26_"
   inkscape:connector-curvature="0"
   fill="#1a1a1a"
   d="m 192.78909,177.07343 h -1.52344 v -1.52344 h 1.52344 z" />&#10;				<path
   id="path57680_26_"
   inkscape:connector-curvature="0"
   fill="#1a1a1a"
   d="m 198.87894,177.07343 h -1.52344 v -1.52344 h 1.52344 z" />&#10;				<path
   id="path57682_26_"
   inkscape:connector-curvature="0"
   fill="#1a1a1a"
   d="m 192.78909,183.16327 h -1.52344 v -1.51953 h 1.52344 z" />&#10;				<path
   id="path57684_26_"
   inkscape:connector-curvature="0"
   fill="#1a1a1a"
   d="m 198.87894,183.16327 h -1.52344 v -1.51953 h 1.52344 z" />&#10;				<path
   id="path57686_26_"
   inkscape:connector-curvature="0"
   fill="#1a1a1a"
   d="m 192.78909,189.25702 h -1.52344 v -1.52344 h 1.52344 z" />&#10;				<path
   id="path57688_26_"
   inkscape:connector-curvature="0"
   fill="#1a1a1a"
   d="m 198.87894,189.25702 h -1.52344 v -1.52344 h 1.52344 z" />&#10;				<path
   id="path57690_26_"
   inkscape:connector-curvature="0"
   fill="#1a1a1a"
   d="m 192.78909,195.35077 h -1.52344 v -1.52344 h 1.52344 z" />&#10;				<path
   id="path57692_26_"
   inkscape:connector-curvature="0"
   fill="#1a1a1a"
   d="m 198.87894,195.35077 h -1.52344 v -1.52344 h 1.52344 z" />&#10;				<path
   id="path57694_26_"
   inkscape:connector-curvature="0"
   fill="#1a1a1a"
   d="m 192.78909,201.44061 h -1.52344 v -1.52344 h 1.52344 z" />&#10;				<path
   id="path57696_26_"
   inkscape:connector-curvature="0"
   fill="#1a1a1a"
   d="m 198.87894,201.44061 h -1.52344 v -1.52344 h 1.52344 z" />&#10;				<path
   id="path57698_26_"
   inkscape:connector-curvature="0"
   fill="#1a1a1a"
   d="m 192.78909,207.53436 h -1.52344 v -1.52344 h 1.52344 z" />&#10;				<path
   id="path57700_26_"
   inkscape:connector-curvature="0"
   fill="#1a1a1a"
   d="m 198.87894,207.53436 h -1.52344 v -1.52344 h 1.52344 z" />&#10;				<path
   id="path57702_26_"
   inkscape:connector-curvature="0"
   fill="#1a1a1a"
   d="m 192.78909,213.62421 h -1.52344 v -1.52344 h 1.52344 z" />&#10;				<path
   id="path57704_26_"
   inkscape:connector-curvature="0"
   fill="#1a1a1a"
   d="m 198.87894,213.62421 h -1.52344 v -1.52344 h 1.52344 z" />&#10;			</g>&#10;			&#10;				<path
   id="path57706_14_"
   inkscape:connector-curvature="0"
   fill="none"
   stroke="#303030"
   stroke-width="2"
   stroke-linecap="round"
   stroke-linejoin="round"
   stroke-miterlimit="10"
   d="m 185.4805,229.23358 h 19.18359" />&#10;			<polygon
   fill="#1a1a1a"
   points="204.04729,222.0582 186.09729,222.0582 187.27347,220.71796 202.87112,220.71796 "
   id="polygon82" />&#10;			<polygon
   fill="#0a0a0a"
   points="204.04729,157.97539 186.09729,157.97539 187.27347,159.31563 202.87112,159.31563 "
   id="polygon83" />&#10;			<rect
   x="185.00003"
   y="223.47577"
   fill="#0a0a0a"
   width="20.148439"
   height="0.37773001"
   id="rect83" />&#10;			<rect
   x="185.00003"
   y="223.85352"
   fill="#1a1a1a"
   width="20.148439"
   height="3.0046899"
   id="rect84" />&#10;			<rect
   x="187.27347"
   y="159.31563"
   fill="#1a1a1a"
   width="15.59766"
   height="2.14258"
   id="rect85" />&#10;			<rect
   x="202.87112"
   y="183.78944"
   fill="#1a1a1a"
   width="2.2695301"
   height="1.81875"
   id="rect86" />&#10;		</g>&#10;	</g>&#10;	<g
   id="XMLID_10_">&#10;		<g
   id="g92">&#10;			<path
   id="path57670_13_"
   inkscape:connector-curvature="0"
   fill="#0f0f0f"
   d="m 265.14847,223.47577 h -20.14844 v -66.91406 h 20.14844 z" />&#10;			<path
   id="path57672_25_"
   inkscape:connector-curvature="0"
   fill="#212121"
   d="m 262.87112,220.71796 h -15.59766 v -61.40233 h 15.59766 z" />&#10;			<path
   id="path57672_24_"
   inkscape:connector-curvature="0"
   fill="#212121"
   d="m 265.14847,196.24413 h -2.27734 v -12.45468 h 2.27734 z" />&#10;			<g
   id="g87">&#10;				<path
   id="path57674_25_"
   inkscape:connector-curvature="0"
   fill="#707070"
   d="m 252.78909,169.45624 h -1.52344 v -1.52344 h 1.52344 z" />&#10;				<path
   id="path57676_25_"
   inkscape:connector-curvature="0"
   fill="#707070"
   d="m 258.87894,169.45624 h -1.52344 v -1.52344 h 1.52344 z" />&#10;				<path
   id="path57678_25_"
   inkscape:connector-curvature="0"
   fill="#707070"
   d="m 252.78909,175.54999 h -1.52344 v -1.52344 h 1.52344 z" />&#10;				<path
   id="path57680_25_"
   inkscape:connector-curvature="0"
   fill="#707070"
   d="m 258.87894,175.54999 h -1.52344 v -1.52344 h 1.52344 z" />&#10;				<path
   id="path57682_25_"
   inkscape:connector-curvature="0"
   fill="#707070"
   d="m 252.78909,181.63983 h -1.52344 v -1.51953 h 1.52344 z" />&#10;				<path
   id="path57684_25_"
   inkscape:connector-curvature="0"
   fill="#707070"
   d="m 258.87894,181.63983 h -1.52344 v -1.51953 h 1.52344 z" />&#10;				<path
   id="path57686_25_"
   inkscape:connector-curvature="0"
   fill="#707070"
   d="m 252.78909,187.73358 h -1.52344 v -1.52344 h 1.52344 z" />&#10;				<path
   id="path57688_25_"
   inkscape:connector-curvature="0"
   fill="#707070"
   d="m 258.87894,187.73358 h -1.52344 v -1.52344 h 1.52344 z" />&#10;				<path
   id="path57690_25_"
   inkscape:connector-curvature="0"
   fill="#707070"
   d="m 252.78909,193.82733 h -1.52344 v -1.52344 h 1.52344 z" />&#10;				<path
   id="path57692_25_"
   inkscape:connector-curvature="0"
   fill="#707070"
   d="m 258.87894,193.82733 h -1.52344 v -1.52344 h 1.52344 z" />&#10;				<path
   id="path57694_25_"
   inkscape:connector-curvature="0"
   fill="#707070"
   d="m 252.78909,199.91718 h -1.52344 v -1.52344 h 1.52344 z" />&#10;				<path
   id="path57696_25_"
   inkscape:connector-curvature="0"
   fill="#707070"
   d="m 258.87894,199.91718 h -1.52344 v -1.52344 h 1.52344 z" />&#10;				<path
   id="path57698_25_"
   inkscape:connector-curvature="0"
   fill="#707070"
   d="m 252.78909,206.01093 h -1.52344 v -1.52344 h 1.52344 z" />&#10;				<path
   id="path57700_25_"
   inkscape:connector-curvature="0"
   fill="#707070"
   d="m 258.87894,206.01093 h -1.52344 v -1.52344 h 1.52344 z" />&#10;				<path
   id="path57702_25_"
   inkscape:connector-curvature="0"
   fill="#707070"
   d="m 252.78909,212.10077 h -1.52344 v -1.52344 h 1.52344 z" />&#10;				<path
   id="path57704_25_"
   inkscape:connector-curvature="0"
   fill="#707070"
   d="m 258.87894,212.10077 h -1.52344 v -1.52344 h 1.52344 z" />&#10;			</g>&#10;			<g
   id="g88">&#10;				<path
   id="path57674_24_"
   inkscape:connector-curvature="0"
   fill="#1a1a1a"
   d="m 252.78909,170.97968 h -1.52344 v -1.52344 h 1.52344 z" />&#10;				<path
   id="path57676_24_"
   inkscape:connector-curvature="0"
   fill="#1a1a1a"
   d="m 258.87894,170.97968 h -1.52344 v -1.52344 h 1.52344 z" />&#10;				<path
   id="path57678_24_"
   inkscape:connector-curvature="0"
   fill="#1a1a1a"
   d="m 252.78909,177.07343 h -1.52344 v -1.52344 h 1.52344 z" />&#10;				<path
   id="path57680_24_"
   inkscape:connector-curvature="0"
   fill="#1a1a1a"
   d="m 258.87894,177.07343 h -1.52344 v -1.52344 h 1.52344 z" />&#10;				<path
   id="path57682_24_"
   inkscape:connector-curvature="0"
   fill="#1a1a1a"
   d="m 252.78909,183.16327 h -1.52344 v -1.51953 h 1.52344 z" />&#10;				<path
   id="path57684_24_"
   inkscape:connector-curvature="0"
   fill="#1a1a1a"
   d="m 258.87894,183.16327 h -1.52344 v -1.51953 h 1.52344 z" />&#10;				<path
   id="path57686_24_"
   inkscape:connector-curvature="0"
   fill="#1a1a1a"
   d="m 252.78909,189.25702 h -1.52344 v -1.52344 h 1.52344 z" />&#10;				<path
   id="path57688_24_"
   inkscape:connector-curvature="0"
   fill="#1a1a1a"
   d="m 258.87894,189.25702 h -1.52344 v -1.52344 h 1.52344 z" />&#10;				<path
   id="path57690_24_"
   inkscape:connector-curvature="0"
   fill="#1a1a1a"
   d="m 252.78909,195.35077 h -1.52344 v -1.52344 h 1.52344 z" />&#10;				<path
   id="path57692_24_"
   inkscape:connector-curvature="0"
   fill="#1a1a1a"
   d="m 258.87894,195.35077 h -1.52344 v -1.52344 h 1.52344 z" />&#10;				<path
   id="path57694_24_"
   inkscape:connector-curvature="0"
   fill="#1a1a1a"
   d="m 252.78909,201.44061 h -1.52344 v -1.52344 h 1.52344 z" />&#10;				<path
   id="path57696_24_"
   inkscape:connector-curvature="0"
   fill="#1a1a1a"
   d="m 258.87894,201.44061 h -1.52344 v -1.52344 h 1.52344 z" />&#10;				<path
   id="path57698_24_"
   inkscape:connector-curvature="0"
   fill="#1a1a1a"
   d="m 252.78909,207.53436 h -1.52344 v -1.52344 h 1.52344 z" />&#10;				<path
   id="path57700_24_"
   inkscape:connector-curvature="0"
   fill="#1a1a1a"
   d="m 258.87894,207.53436 h -1.52344 v -1.52344 h 1.52344 z" />&#10;				<path
   id="path57702_24_"
   inkscape:connector-curvature="0"
   fill="#1a1a1a"
   d="m 252.78909,213.62421 h -1.52344 v -1.52344 h 1.52344 z" />&#10;				<path
   id="path57704_24_"
   inkscape:connector-curvature="0"
   fill="#1a1a1a"
   d="m 258.87894,213.62421 h -1.52344 v -1.52344 h 1.52344 z" />&#10;			</g>&#10;			&#10;				<path
   id="path57706_13_"
   inkscape:connector-curvature="0"
   fill="none"
   stroke="#303030"
   stroke-width="2"
   stroke-linecap="round"
   stroke-linejoin="round"
   stroke-miterlimit="10"
   d="m 245.4805,229.23358 h 19.18359" />&#10;			<polygon
   fill="#1a1a1a"
   points="264.0473,222.0582 246.09729,222.0582 247.27347,220.71796 262.87112,220.71796 "
   id="polygon88" />&#10;			<polygon
   fill="#0a0a0a"
   points="264.0473,157.97539 246.09729,157.97539 247.27347,159.31563 262.87112,159.31563 "
   id="polygon89" />&#10;			<rect
   x="245.00003"
   y="223.47577"
   fill="#0a0a0a"
   width="20.148439"
   height="0.37773001"
   id="rect89" />&#10;			<rect
   x="245.00003"
   y="223.85352"
   fill="#1a1a1a"
   width="20.148439"
   height="3.0046899"
   id="rect90" />&#10;			<rect
   x="247.27347"
   y="159.31563"
   fill="#1a1a1a"
   width="15.59766"
   height="2.14258"
   id="rect91" />&#10;			<rect
   x="262.87112"
   y="183.78944"
   fill="#1a1a1a"
   width="2.2695301"
   height="1.81875"
   id="rect92" />&#10;		</g>&#10;	</g>&#10;	&#10;	&#10;	&#10;</g></svg>
